# xmcd
# 
# Track frame offsets:
#     150
#     22110
#     39770
#     61730
# 
# Disc length: 1054
# 
# Revision: 1
# Processed by: cddbd v1.5.2PL0 Copyright (c) Steve Scherf et al.
# Submitted via: BonkEnc v1.0.6
# 
DISCID=26041c04
DTITLE=ROCKY CHACK - リンゴ日和
DYEAR=2008
DGENRE=Anime
TTITLE0=リンゴ日和 ～The Wolf Whistling Song
TTITLE1=生意気なぼくら
TTITLE2=リンゴ日和 ～The Wolf Whistling Song （w/o ROCKY CHACK）
TTITLE3=生意気なぼくら （w/o ROCKY CHACK）
EXTD=
EXTT0=「狼と香辛料」 エンディングテーマ
EXTT1=
EXTT2=
EXTT3=
PLAYORDER=
